<?xml version="1.0" encoding="UTF-8"?><svg id="_이어_2" xmlns="http://www.w3.org/2000/svg" viewBox="0 0 604.6 128.48"><defs><style>.cls-1{fill:#141415;}.cls-1,.cls-2{fill-rule:evenodd;}.cls-2{fill:#1f74a6;}</style></defs><g id="Layer_1"><g><path class="cls-1" d="M397.64,1.58h-43.92c-8.94,0-16.2,7-16.2,15.59V127.8h19.28c11.43,.05,40.16,.16,41.1-.04,32.7-2.8,49.51-23.86,49.89-62.56v-.61c0-39.12-16.87-60.32-50.14-63.01m19.62,93.68c-2.11,2.88-4.74,5.15-7.85,6.74l-2.38,1.05s-.35,.15-.35,.15c-.02,0-2.51,.77-2.51,.77-.01,0-.43,.11-.43,.11l-2.77,.53c-.11,.02-.23,.03-.23,.03l-3.13,.3-2.16,.06h-34.62V31.47c0-3.75,3.05-6.84,6.81-6.87h28.01l2.05,.05,1.71,.13,.58,.07,1.15,.15,.65,.11,1.02,.19,.66,.15,.96,.24,.63,.18,.93,.31,.59,.19,1.16,.48,.28,.12,1.38,.66c9.99,5.26,15.05,17.63,15.05,36.78,0,13.96-2.43,24.33-7.19,30.87"/><path class="cls-1" d="M224.77,2.17c-6.66,0-12.07,4.91-12.07,10.94s5.41,10.94,12.07,10.94h34.77V125.78l.26,2.52,.64-.06h20.76l.05-.59,.18-1.87V24.05h34.78c6.65,0,12.06-4.91,12.06-10.94s-5.41-10.94-12.06-10.94h-91.44Z"/><path class="cls-1" d="M602.56,18.86c-1.35-3.92-3.26-7.31-5.66-10.07-2.41-2.77-5.26-4.95-8.5-6.48-3.24-1.53-6.76-2.3-10.49-2.3-5.3,0-10.17,1.84-14.47,5.47-4.27,3.61-7.26,8.66-8.89,15l-19.73,75.86c-.59,2.36-1.29,4.15-2.08,5.33-.37,.55-.82,.88-1.38,1.11-.55-.23-1.01-.56-1.38-1.11-.79-1.18-1.48-2.97-2.07-5.33l-19.74-75.86c-1.63-6.34-4.63-11.39-8.9-15-4.3-3.63-9.17-5.47-14.47-5.47-3.72,0-7.25,.77-10.49,2.3-3.22,1.53-6.09,3.71-8.5,6.48-2.4,2.77-4.31,6.17-5.66,10.08-1.36,3.9-2.05,8.29-2.05,13.07V127.75h20.95V34.04c0-8.59,3.45-9.58,6.05-9.58,1.13,0,1.95,.44,2.58,1.41,.81,1.2,1.51,3,2.08,5.34l19.89,76.12c1.41,6.35,4.33,11.43,8.68,15.06,1.08,.9,2.21,1.68,3.36,2.36,2.46,1.68,5.85,2.72,9.6,2.72,3.26,0,6.24-.78,8.59-2.1,1.55-.8,3.05-1.79,4.48-2.98,4.33-3.63,7.26-8.71,8.68-15.1l19.87-76.07c.58-2.35,1.29-4.16,2.08-5.34,.64-.96,1.46-1.41,2.59-1.41,2.6,0,6.05,.99,6.05,9.58V127.75h20.95V31.93c0-4.77-.68-9.16-2.04-13.07"/><path class="cls-2" d="M93.42,2.09c-25.84,.24-49.5,6.86-66.62,18.65C9.51,32.64,0,48.88,0,66.47c0,15.35,6.59,29.22,19.05,40.12,13,11.37,31.84,18.93,54.52,21.85l.24,.04h.18c5.47-.01,9.9-4.24,9.9-9.44,0-4.45-3.19-8.23-7.77-9.18-10.35-2.22-53.18-16.9-53.18-43.4,0-20.63,25.43-39.36,59.04-44.51,.05,0,.67-.04,.67-.04,.1,0,.49,.02,.49,.02h.27l.34-.02c2.61,.02,4.72,1.8,4.72,3.97V105.42c.12,6.08,5.58,11.08,12.46,11.4h1.35c6.89-.31,12.36-5.32,12.46-11.41V25.89c.01-2.18,2.11-3.95,4.68-3.98,.04,0,.4,.02,.4,.02h.3l.35-.02c.09,0,.72,.04,.72,.04,33.65,5.16,59.09,23.89,59.09,44.52,0,26.5-42.83,41.18-53.18,43.4-4.58,.95-7.78,4.72-7.78,9.18,0,5.2,4.44,9.43,9.91,9.43h.23l.18-.03c22.68-2.92,41.53-10.48,54.53-21.85,12.46-10.9,19.05-24.77,19.05-40.12,0-17.59-9.52-33.83-26.81-45.72C159.3,8.95,135.65,2.33,109.8,2.09h-.24l-.16,.02c-2.84,.34-5.45,1.68-7.36,3.79l-.38,.44-.46-.44c-1.91-2.11-4.52-3.46-7.36-3.79l-.24-.02h-.16Z"/></g></g></svg>